<svg width="54" height="19" viewBox="0 0 54 19" fill="none" xmlns="http://www.w3.org/2000/svg">
<g filter="url(#filter0_d_4_106)">
<path d="M12.412 1.36L10.9 10H8.728L7.216 5.272L6.4 10H4.228L5.752 1.36H7.984L9.472 5.776L10.252 1.36H12.412ZM16.2192 4.06C17.0832 4.06 17.7352 4.248 18.1752 4.624C18.5192 4.92 18.6912 5.332 18.6912 5.86C18.6912 6.036 18.6712 6.228 18.6312 6.436L18.3792 7.84C18.2272 8.688 17.8712 9.288 17.3112 9.64C16.7592 9.992 16.0192 10.168 15.0912 10.168C14.1632 10.168 13.4832 9.992 13.0512 9.64C12.7312 9.376 12.5712 8.98 12.5712 8.452C12.5712 8.268 12.5912 8.064 12.6312 7.84L12.8832 6.436C13.1632 4.852 14.2752 4.06 16.2192 4.06ZM16.5432 6.676C16.5592 6.596 16.5672 6.496 16.5672 6.376C16.5672 6.248 16.5152 6.108 16.4112 5.956C16.3072 5.804 16.1232 5.728 15.8592 5.728C15.6032 5.728 15.3872 5.816 15.2112 5.992C15.0352 6.16 14.9232 6.388 14.8752 6.676L14.7192 7.576C14.7032 7.656 14.6952 7.76 14.6952 7.888C14.6952 8.008 14.7472 8.14 14.8512 8.284C14.9552 8.428 15.1352 8.5 15.3912 8.5C15.6552 8.5 15.8752 8.412 16.0512 8.236C16.2272 8.052 16.3392 7.832 16.3872 7.576L16.5432 6.676ZM21.9726 10.168C21.0446 10.168 20.3766 9.96 19.9686 9.544C19.6646 9.24 19.5126 8.832 19.5126 8.32C19.5126 8.152 19.5286 7.972 19.5606 7.78L20.3766 3.136L22.5726 2.224L22.2246 4.228H25.5366L25.2366 5.92H21.9246L21.6846 7.276C21.6526 7.428 21.6366 7.564 21.6366 7.684C21.6366 8.188 21.8766 8.44 22.3566 8.44C22.6126 8.44 22.8246 8.332 22.9926 8.116C23.1686 7.9 23.2886 7.612 23.3526 7.252H25.3446C25.0086 9.196 23.8846 10.168 21.9726 10.168ZM31.6186 8.152C31.6186 8.36 31.7226 8.464 31.9306 8.464C32.1466 8.464 32.3266 8.424 32.4706 8.344L32.4106 9.7C32.0266 10.012 31.5946 10.168 31.1146 10.168C30.2346 10.168 29.7466 9.848 29.6506 9.208C29.2506 9.848 28.6626 10.168 27.8866 10.168C26.5746 10.168 25.9186 9.604 25.9186 8.476C25.9186 8.284 25.9386 8.072 25.9786 7.84L26.2306 6.436C26.3586 5.716 26.6506 5.144 27.1066 4.72C27.5706 4.288 28.1706 4.072 28.9066 4.072C29.6506 4.072 30.1546 4.244 30.4186 4.588L30.4786 4.228H32.3026L31.6306 8.008C31.6226 8.056 31.6186 8.104 31.6186 8.152ZM28.0666 7.576C28.0506 7.648 28.0426 7.748 28.0426 7.876C28.0426 8.004 28.1026 8.132 28.2226 8.26C28.3426 8.38 28.5426 8.44 28.8226 8.44C29.1106 8.44 29.3586 8.328 29.5666 8.104L29.9266 6.088C29.8386 5.888 29.6306 5.788 29.3026 5.788C28.6866 5.788 28.3266 6.084 28.2226 6.676L28.0666 7.576ZM37.3253 4.06C38.1173 4.06 38.6733 4.28 38.9933 4.72C39.2333 5.032 39.3533 5.412 39.3533 5.86C39.3533 6.044 39.3333 6.236 39.2933 6.436L39.0533 7.78C38.9173 8.548 38.5613 9.14 37.9853 9.556C37.4173 9.964 36.6973 10.168 35.8253 10.168C34.9613 10.168 34.2973 9.996 33.8333 9.652C33.4653 9.38 33.2813 9 33.2813 8.512C33.2813 8.384 33.2933 8.252 33.3173 8.116L34.5893 0.891999H36.6293L36.0173 4.384C36.3533 4.168 36.7893 4.06 37.3253 4.06ZM37.2173 6.616C37.2253 6.552 37.2293 6.464 37.2293 6.352C37.2293 6.232 37.1773 6.108 37.0733 5.98C36.9773 5.844 36.7613 5.776 36.4253 5.776C36.0973 5.776 35.8613 5.876 35.7173 6.076L35.3693 8.08C35.4653 8.32 35.6653 8.44 35.9693 8.44C36.5853 8.44 36.9493 8.132 37.0613 7.516L37.2173 6.616ZM42.2851 8.152C42.2851 8.36 42.3891 8.464 42.5971 8.464C42.8131 8.464 42.9931 8.424 43.1371 8.344L43.0771 9.7C42.6931 10.012 42.2611 10.168 41.7811 10.168C41.0531 10.168 40.5811 10 40.3651 9.664C40.2291 9.448 40.1611 9.212 40.1611 8.956C40.1611 8.7 40.1771 8.476 40.2091 8.284L41.5171 0.891999H43.5571L42.2971 8.008C42.2891 8.056 42.2851 8.104 42.2851 8.152ZM46.3091 10.168C44.6451 10.168 43.8131 9.592 43.8131 8.44C43.8131 8.28 43.8291 8.108 43.8611 7.924L44.1131 6.436C44.2491 5.668 44.6011 5.08 45.1691 4.672C45.7451 4.256 46.5051 4.048 47.4491 4.048C49.0571 4.048 49.8611 4.656 49.8611 5.872C49.8611 6.048 49.8451 6.24 49.8131 6.448L49.6691 7.3H46.0091L45.9611 7.576C45.9451 7.672 45.9371 7.76 45.9371 7.84C45.9371 8.28 46.1971 8.5 46.7171 8.5C46.9091 8.5 47.0731 8.44 47.2091 8.32C47.3451 8.2 47.4251 8.06 47.4491 7.9L49.4411 7.924C49.1771 9.42 48.1331 10.168 46.3091 10.168ZM47.7491 6.568C47.7811 6.432 47.7971 6.308 47.7971 6.196C47.7971 6.076 47.7451 5.956 47.6411 5.836C47.5371 5.716 47.3691 5.656 47.1371 5.656C46.9131 5.656 46.7051 5.732 46.5131 5.884C46.3291 6.036 46.2011 6.264 46.1291 6.568H47.7491Z" fill="black"/>
</g>
<defs>
<filter id="filter0_d_4_106" x="0.227997" y="0.891998" width="53.6331" height="17.276" filterUnits="userSpaceOnUse" color-interpolation-filters="sRGB">
<feFlood flood-opacity="0" result="BackgroundImageFix"/>
<feColorMatrix in="SourceAlpha" type="matrix" values="0 0 0 0 0 0 0 0 0 0 0 0 0 0 0 0 0 0 127 0" result="hardAlpha"/>
<feOffset dy="4"/>
<feGaussianBlur stdDeviation="2"/>
<feComposite in2="hardAlpha" operator="out"/>
<feColorMatrix type="matrix" values="0 0 0 0 0 0 0 0 0 0 0 0 0 0 0 0 0 0 0.25 0"/>
<feBlend mode="normal" in2="BackgroundImageFix" result="effect1_dropShadow_4_106"/>
<feBlend mode="normal" in="SourceGraphic" in2="effect1_dropShadow_4_106" result="shape"/>
</filter>
</defs>
</svg>
